<svg width="64" height="16" viewBox="0 0 64 16" fill="none" xmlns="http://www.w3.org/2000/svg">
<path d="M14.424 15.24H8.80799L8.47199 11.424H4.03199L2.32799 15.24H-9.32813e-06L7.07999 4.76837e-07H12.768L14.424 15.24ZM4.82399 9.672H8.30399L7.75199 3.144L4.82399 9.672ZM20.0055 15C19.7255 15.1133 19.4288 15.1933 19.1155 15.24C18.8088 15.2933 18.4588 15.32 18.0655 15.32C17.7188 15.32 17.3988 15.2867 17.1055 15.22C16.8188 15.1467 16.5688 15.0333 16.3555 14.88C16.1422 14.7267 15.9755 14.53 15.8555 14.29C15.7355 14.0433 15.6755 13.7467 15.6755 13.4C15.6755 13.04 15.7355 12.7067 15.8555 12.4C15.9822 12.0867 16.1688 11.8133 16.4155 11.58C16.6688 11.3467 16.9888 11.1633 17.3755 11.03C17.7622 10.8967 18.2222 10.83 18.7555 10.83C19.1888 10.83 19.5655 10.8667 19.8855 10.94C20.2055 11.0067 20.4688 11.1633 20.6755 11.41L20.3955 12.69H19.0355C19.0422 12.5767 19.0488 12.4767 19.0555 12.39C19.0622 12.3033 19.0655 12.2067 19.0655 12.1C19.0655 11.8867 19.0422 11.7367 18.9955 11.65C18.9488 11.5567 18.8722 11.51 18.7655 11.51C18.5788 11.51 18.4155 11.6033 18.2755 11.79C18.1355 11.97 18.0188 12.19 17.9255 12.45C17.8388 12.7033 17.7722 12.9733 17.7255 13.26C17.6855 13.54 17.6655 13.78 17.6655 13.98C17.6655 14.0533 17.6688 14.13 17.6755 14.21C17.6822 14.2833 17.6955 14.3533 17.7155 14.42C17.7422 14.4867 17.7755 14.54 17.8155 14.58C17.8555 14.62 17.9122 14.64 17.9855 14.64C18.0522 14.64 18.1288 14.62 18.2155 14.58C18.3022 14.54 18.3855 14.48 18.4655 14.4C18.5455 14.3133 18.6222 14.2033 18.6955 14.07C18.7688 13.9367 18.8255 13.7767 18.8655 13.59H20.2955L20.0055 15ZM21.5903 10.94H23.2203L23.3703 11.69H23.4403C23.5937 11.45 23.7903 11.2467 24.0303 11.08C24.2703 10.9133 24.587 10.83 24.9803 10.83C25.007 10.83 25.047 10.8333 25.1003 10.84C25.1603 10.84 25.2237 10.85 25.2903 10.87C25.3637 10.8833 25.437 10.9067 25.5103 10.94C25.5903 10.9667 25.667 11.0067 25.7403 11.06L25.3003 13.12H24.2103C24.197 12.7067 24.1603 12.42 24.1003 12.26C24.0403 12.0933 23.9437 12.01 23.8103 12.01C23.7437 12.01 23.6703 12.0267 23.5903 12.06C23.517 12.0867 23.4403 12.15 23.3603 12.25L22.7203 15.24H20.6803L21.5903 10.94ZM28.7643 10.83C29.5577 10.83 30.1343 10.97 30.4943 11.25C30.8743 11.5433 31.0643 12.03 31.0643 12.71C31.0643 13.13 30.9943 13.51 30.8543 13.85C30.7143 14.1833 30.5177 14.46 30.2643 14.68C29.7577 15.1067 29.0243 15.32 28.0643 15.32C27.2443 15.32 26.6577 15.1633 26.3043 14.85C25.9243 14.5233 25.7343 14.0333 25.7343 13.38C25.7343 12.9467 25.821 12.5533 25.9943 12.2C26.1743 11.8467 26.431 11.5533 26.7643 11.32C27.251 10.9933 27.9177 10.83 28.7643 10.83ZM28.0843 14.64C28.251 14.64 28.3943 14.5467 28.5143 14.36C28.641 14.1733 28.741 13.9467 28.8143 13.68C28.8877 13.4067 28.941 13.1267 28.9743 12.84C29.0143 12.5467 29.0343 12.2933 29.0343 12.08C29.0343 11.8933 29.0143 11.7533 28.9743 11.66C28.941 11.56 28.8643 11.51 28.7443 11.51C28.5643 11.51 28.4077 11.6067 28.2743 11.8C28.1477 11.9933 28.0443 12.2233 27.9643 12.49C27.8843 12.7567 27.8243 13.03 27.7843 13.31C27.751 13.59 27.7343 13.8167 27.7343 13.99C27.7343 14.4233 27.851 14.64 28.0843 14.64ZM33.3343 4.76837e-07H38.8063L39.6223 10.32L44.6143 4.76837e-07H46.9903L39.8863 15.24H34.2223L33.3343 4.76837e-07ZM46.0316 11.31C46.3716 11.1433 46.7183 11.0233 47.0716 10.95C47.4316 10.87 47.8316 10.83 48.2716 10.83C48.6983 10.83 49.0516 10.8633 49.3316 10.93C49.6116 10.9967 49.8349 11.0933 50.0016 11.22C50.1683 11.3467 50.2849 11.4967 50.3516 11.67C50.4183 11.8433 50.4516 12.04 50.4516 12.26C50.4516 12.3867 50.4416 12.5233 50.4216 12.67C50.4083 12.8167 50.3916 12.94 50.3716 13.04L49.9016 15.24H48.2916L48.1116 14.6H48.0516C47.8383 14.8333 47.5883 15.0133 47.3016 15.14C47.0216 15.26 46.7416 15.32 46.4616 15.32C46.3016 15.32 46.1449 15.2967 45.9916 15.25C45.8383 15.2033 45.7016 15.1333 45.5816 15.04C45.4616 14.94 45.3649 14.8167 45.2916 14.67C45.2183 14.5167 45.1816 14.3333 45.1816 14.12C45.1816 13.7733 45.2749 13.5 45.4616 13.3C45.6549 13.0933 45.9049 12.94 46.2116 12.84C46.5249 12.7333 46.8749 12.6667 47.2616 12.64C47.6549 12.6133 48.0483 12.6 48.4416 12.6C48.4549 12.5333 48.4716 12.44 48.4916 12.32C48.5116 12.1933 48.5216 12.0833 48.5216 11.99C48.5216 11.87 48.4883 11.76 48.4216 11.66C48.3616 11.5533 48.2316 11.5 48.0316 11.5C47.7983 11.5 47.6249 11.57 47.5116 11.71C47.4049 11.8433 47.3349 12.0067 47.3016 12.2H45.8416L46.0316 11.31ZM48.3316 13.07H48.1516C47.9583 13.07 47.7916 13.0967 47.6516 13.15C47.5183 13.1967 47.4083 13.26 47.3216 13.34C47.2416 13.42 47.1816 13.51 47.1416 13.61C47.1016 13.71 47.0816 13.81 47.0816 13.91C47.0816 14.07 47.1216 14.19 47.2016 14.27C47.2883 14.35 47.3883 14.39 47.5016 14.39C47.6416 14.39 47.7783 14.34 47.9116 14.24C48.0516 14.14 48.1383 14.0067 48.1716 13.84L48.3316 13.07ZM54.5592 10.94H56.5992L55.6792 15.24H54.0592L53.8792 14.6H53.8192C53.6458 14.8067 53.4092 14.98 53.1092 15.12C52.8158 15.2533 52.5192 15.32 52.2192 15.32C51.8192 15.32 51.5058 15.22 51.2792 15.02C51.0525 14.8133 50.9392 14.5467 50.9392 14.22C50.9392 14.0533 50.9658 13.8467 51.0192 13.6C51.0792 13.3467 51.1325 13.11 51.1792 12.89L51.5992 10.94H53.6292L53.1292 13.28C53.1158 13.3333 53.1025 13.3967 53.0892 13.47C53.0758 13.5433 53.0625 13.6167 53.0492 13.69C53.0358 13.7567 53.0225 13.8233 53.0092 13.89C53.0025 13.95 52.9992 14 52.9992 14.04C52.9992 14.14 53.0192 14.2267 53.0592 14.3C53.1058 14.3667 53.1858 14.4 53.2992 14.4C53.4192 14.4 53.5325 14.36 53.6392 14.28C53.7458 14.2 53.8292 14.1233 53.8892 14.05L54.5592 10.94ZM58.6188 15.24H56.5788L57.9988 8.52H60.0488L58.6188 15.24ZM60.0685 10.94C60.3151 10.8867 60.5318 10.8267 60.7185 10.76C60.9051 10.6933 61.0751 10.61 61.2285 10.51C61.3885 10.41 61.5385 10.2867 61.6785 10.14C61.8251 9.99333 61.9818 9.81333 62.1485 9.6H63.1785L62.8885 10.94H63.6685L63.5385 11.61H62.7485L62.3385 13.56C62.3051 13.7133 62.2785 13.85 62.2585 13.97C62.2385 14.09 62.2285 14.1833 62.2285 14.25C62.2285 14.3833 62.2751 14.4667 62.3685 14.5C62.4685 14.5333 62.6518 14.55 62.9185 14.55L62.7685 15.24C62.7218 15.2533 62.6485 15.2633 62.5485 15.27C62.4551 15.2767 62.3485 15.2833 62.2285 15.29C62.1151 15.3033 61.9951 15.31 61.8685 15.31C61.7485 15.3167 61.6418 15.32 61.5485 15.32C61.3818 15.32 61.2185 15.3067 61.0585 15.28C60.8985 15.26 60.7551 15.2167 60.6285 15.15C60.5018 15.0767 60.3985 14.9733 60.3185 14.84C60.2451 14.7067 60.2085 14.5267 60.2085 14.3C60.2085 14.22 60.2118 14.12 60.2185 14C60.2318 13.88 60.2551 13.7467 60.2885 13.6L60.7085 11.61H59.9285L60.0685 10.94Z" fill="#1E40AF"/>
</svg>
